<svg width="24" height="28" viewBox="0 0 24 28" fill="none" xmlns="http://www.w3.org/2000/svg">
<path d="M24 22H20V18H18V22H14V24H18V28H20V24H24V22Z" fill="black"/>
<path d="M10 26H2V1.99997H10V7.99997C10.0016 8.52992 10.2128 9.03771 10.5875 9.41244C10.9623 9.78717 11.4701 9.99839 12 9.99997H18V14H20V7.99997C20.0035 7.86855 19.9785 7.73792 19.9268 7.61708C19.875 7.49624 19.7976 7.38806 19.7 7.29997L12.7 0.299974C12.612 0.202318 12.5038 0.124924 12.3829 0.0731309C12.2621 0.0213376 12.1314 -0.00362204 12 -2.61706e-05H2C1.47005 0.00155656 0.962265 0.212779 0.587535 0.587509C0.212805 0.962239 0.00158273 1.47003 0 1.99997V26C0.00158273 26.5299 0.212805 27.0377 0.587535 27.4124C0.962265 27.7872 1.47005 27.9984 2 28H10V26ZM12 2.39997L17.6 7.99997H12V2.39997Z" fill="black"/>
</svg>
