<svg width="21" height="22" viewBox="0 0 21 22" fill="none" xmlns="http://www.w3.org/2000/svg">
<path d="M15.0001 22C15.5523 22 16.0001 21.5523 16.0001 21C16.0001 20.4477 15.5523 20 15.0001 20V22ZM3.26606 21L3.26606 20L3.26584 20L3.26606 21ZM1.28106 18.752L2.27334 18.876L2.27336 18.8759L1.28106 18.752ZM1.67106 15.628L0.678779 15.504L0.678763 15.5041L1.67106 15.628ZM4.64906 13L4.64868 14H4.64906V13ZM5.00006 14C5.55235 14 6.00006 13.5523 6.00006 13C6.00006 12.4477 5.55235 12 5.00006 12V14ZM18.0001 12C18.0001 11.4477 17.5523 11 17.0001 11C16.4478 11 16.0001 11.4477 16.0001 12H18.0001ZM16.0001 18C16.0001 18.5523 16.4478 19 17.0001 19C17.5523 19 18.0001 18.5523 18.0001 18H16.0001ZM14.0001 14C13.4478 14 13.0001 14.4477 13.0001 15C13.0001 15.5523 13.4478 16 14.0001 16V14ZM20.0001 16C20.5523 16 21.0001 15.5523 21.0001 15C21.0001 14.4477 20.5523 14 20.0001 14V16ZM14.0001 6C14.0001 8.20914 12.2092 10 10.0001 10V12C13.3138 12 16.0001 9.31371 16.0001 6H14.0001ZM10.0001 10C7.79092 10 6.00006 8.20914 6.00006 6H4.00006C4.00006 9.31371 6.68635 12 10.0001 12V10ZM6.00006 6C6.00006 3.79086 7.79092 2 10.0001 2V0C6.68635 0 4.00006 2.68629 4.00006 6H6.00006ZM10.0001 2C12.2092 2 14.0001 3.79086 14.0001 6H16.0001C16.0001 2.68629 13.3138 0 10.0001 0V2ZM15.0001 20H3.26606V22H15.0001V20ZM3.26584 20C3.12403 20 2.98384 19.9699 2.85457 19.9116L2.03245 21.7348C2.42027 21.9097 2.84085 22.0001 3.26628 22L3.26584 20ZM2.85457 19.9116C2.72529 19.8533 2.60989 19.7682 2.51603 19.6619L1.01684 20.9857C1.29843 21.3046 1.64463 21.56 2.03245 21.7348L2.85457 19.9116ZM2.51603 19.6619C2.42217 19.5556 2.35199 19.4306 2.31015 19.2951L0.399185 19.8852C0.524709 20.2917 0.735252 20.6668 1.01684 20.9857L2.51603 19.6619ZM2.31015 19.2951C2.2683 19.1596 2.25576 19.0167 2.27334 18.876L0.288778 18.628C0.236025 19.0501 0.273661 19.4787 0.399185 19.8852L2.31015 19.2951ZM2.27336 18.8759L2.66336 15.7519L0.678763 15.5041L0.288763 18.6281L2.27336 18.8759ZM2.66334 15.752C2.72381 15.2681 2.95895 14.8231 3.32456 14.5004L2.00122 13.0008C1.27 13.6461 0.799707 14.5363 0.678779 15.504L2.66334 15.752ZM3.32456 14.5004C3.69018 14.1778 4.16106 13.9998 4.64868 14L4.64945 12C3.67421 11.9996 2.73244 12.3555 2.00122 13.0008L3.32456 14.5004ZM4.64906 14H5.00006V12H4.64906V14ZM16.0001 12V18H18.0001V12H16.0001ZM14.0001 16H20.0001V14H14.0001V16Z" fill="black"/>
</svg>
