<svg width="30" height="28" viewBox="0 0 30 28" fill="none" xmlns="http://www.w3.org/2000/svg">
<path d="M29.9399 13.66C28.7977 10.6708 26.8059 8.08113 24.2099 6.21L28.9999 1.41L27.5899 0L0.999941 26.59L2.40994 28L7.50994 22.91C9.78637 24.2367 12.3655 24.9564 14.9999 25C18.2594 24.8774 21.4116 23.8024 24.0667 21.9079C26.7219 20.0134 28.7638 17.3824 29.9399 14.34C30.0194 14.1203 30.0194 13.8797 29.9399 13.66ZM14.9999 20.5C13.6215 20.4994 12.2795 20.0579 11.1699 19.24L12.9999 17.43C13.7587 17.8458 14.6319 18.0043 15.4884 17.8817C16.3449 17.7592 17.1386 17.3623 17.7504 16.7505C18.3622 16.1387 18.7592 15.345 18.8817 14.4885C19.0042 13.6319 18.8457 12.7588 18.4299 12L20.2399 10.19C20.9444 11.1576 21.3676 12.3012 21.4627 13.4943C21.5578 14.6874 21.3212 15.8835 20.7789 16.9505C20.2366 18.0175 19.4098 18.9137 18.3899 19.5402C17.3701 20.1666 16.1968 20.4988 14.9999 20.5Z" fill="black"/>
<path d="M3.52994 19.81L8.52994 14.81C8.50394 14.5408 8.49392 14.2704 8.49994 14C8.50259 12.2769 9.18825 10.6251 10.4067 9.40673C11.6251 8.18831 13.2768 7.50264 14.9999 7.5C15.264 7.5014 15.5278 7.5181 15.7899 7.55L19.5699 3.78C18.0988 3.27471 16.5554 3.01129 14.9999 3C11.7405 3.12257 8.58833 4.19756 5.93314 6.09209C3.27796 7.98662 1.2361 10.6176 0.0599408 13.66C-0.019492 13.8797 -0.019492 14.1203 0.0599408 14.34C0.827967 16.3826 2.00927 18.2448 3.52994 19.81Z" fill="black"/>
</svg>
