<svg width="30" height="22" viewBox="0 0 30 22" fill="none" xmlns="http://www.w3.org/2000/svg">
<path d="M14.9999 15C17.2091 15 18.9999 13.2091 18.9999 11C18.9999 8.79086 17.2091 7 14.9999 7C12.7908 7 10.9999 8.79086 10.9999 11C10.9999 13.2091 12.7908 15 14.9999 15Z" fill="black"/>
<path d="M29.9399 10.66C28.7638 7.61765 26.7219 4.98662 24.0667 3.09209C21.4116 1.19756 18.2594 0.122573 14.9999 0C11.7405 0.122573 8.58833 1.19756 5.93314 3.09209C3.27796 4.98662 1.2361 7.61765 0.0599408 10.66C-0.019492 10.8797 -0.019492 11.1203 0.0599408 11.34C1.2361 14.3824 3.27796 17.0134 5.93314 18.9079C8.58833 20.8024 11.7405 21.8774 14.9999 22C18.2594 21.8774 21.4116 20.8024 24.0667 18.9079C26.7219 17.0134 28.7638 14.3824 29.9399 11.34C30.0194 11.1203 30.0194 10.8797 29.9399 10.66ZM14.9999 17.5C13.7144 17.5 12.4577 17.1188 11.3887 16.4046C10.3198 15.6903 9.48669 14.6752 8.99472 13.4874C8.50275 12.2997 8.37403 10.9928 8.62484 9.73191C8.87564 8.47104 9.49471 7.31285 10.4037 6.40381C11.3128 5.49476 12.471 4.8757 13.7319 4.6249C14.9927 4.37409 16.2997 4.50281 17.4874 4.99478C18.6751 5.48675 19.6903 6.31987 20.4045 7.38879C21.1187 8.45771 21.4999 9.71442 21.4999 11C21.4973 12.7231 20.8116 14.3749 19.5932 15.5933C18.3748 16.8117 16.723 17.4974 14.9999 17.5Z" fill="black"/>
</svg>
