<svg width="19" height="21" viewBox="0 0 19 21" fill="none" xmlns="http://www.w3.org/2000/svg">
<path d="M4.49633 2.11764C4.61356 1.79064 4.83075 1.50755 5.11797 1.30738C5.40519 1.10721 5.74829 0.999818 6.09999 1H9.49998C9.85168 0.999818 10.1948 1.10721 10.482 1.30738C10.7692 1.50755 10.9864 1.79064 11.1036 2.11764H12.9C13.3508 2.11764 13.7832 2.29426 14.1021 2.60866C14.4209 2.92306 14.6 3.34947 14.6 3.7941V10.3625C14.2878 10.089 13.8842 9.93895 13.4666 9.94111V3.7941C13.4666 3.64589 13.4069 3.50375 13.3007 3.39895C13.1944 3.29415 13.0503 3.23528 12.9 3.23528H11.1036C10.9864 3.56227 10.7692 3.84536 10.482 4.04553C10.1948 4.2457 9.85168 4.3531 9.49998 4.35292H6.09999C5.74829 4.3531 5.40519 4.2457 5.11797 4.04553C4.83075 3.84536 4.61356 3.56227 4.49633 3.23528H2.7C2.54971 3.23528 2.40557 3.29415 2.2993 3.39895C2.19303 3.50375 2.13333 3.64589 2.13333 3.7941V17.2058C2.13333 17.354 2.19303 17.4961 2.2993 17.6009C2.40557 17.7057 2.54971 17.7646 2.7 17.7646H7.18459L7.64245 18.2921C7.97905 18.6788 8.45392 18.8766 8.93332 18.8777V18.8822H2.7C2.24913 18.8822 1.81673 18.7056 1.49792 18.3912C1.17911 18.0768 1 17.6504 1 17.2058V3.7941C1 3.34947 1.17911 2.92306 1.49792 2.60866C1.81673 2.29426 2.24913 2.11764 2.7 2.11764H4.49633ZM6.09999 2.11764C5.9497 2.11764 5.80557 2.17651 5.6993 2.28131C5.59303 2.38611 5.53332 2.52825 5.53332 2.67646C5.53332 2.82467 5.59303 2.9668 5.6993 3.0716C5.80557 3.1764 5.9497 3.23528 6.09999 3.23528H9.49998C9.65027 3.23528 9.7944 3.1764 9.90068 3.0716C10.0069 2.9668 10.0666 2.82467 10.0666 2.67646C10.0666 2.52825 10.0069 2.38611 9.90068 2.28131C9.7944 2.17651 9.65027 2.11764 9.49998 2.11764H6.09999Z" fill="black"/>
<path d="M14.0174 11.7707C14.0378 11.7001 14.0439 11.6262 14.0354 11.5533C14.0268 11.4804 14.0038 11.4098 13.9676 11.3457C13.9314 11.2816 13.8827 11.2251 13.8244 11.1795C13.766 11.1339 13.6992 11.1001 13.6276 11.08C13.556 11.0599 13.4811 11.0539 13.4071 11.0623C13.3332 11.0707 13.2617 11.0935 13.1966 11.1292C13.1316 11.1649 13.0743 11.2129 13.0281 11.2704C12.9819 11.3279 12.9476 11.3939 12.9272 11.4644L10.6605 19.2879C10.6401 19.3585 10.634 19.4324 10.6426 19.5053C10.6511 19.5782 10.6742 19.6488 10.7104 19.7129C10.7835 19.8424 10.9058 19.938 11.0504 19.9786C11.195 20.0192 11.35 20.0015 11.4813 19.9294C11.6127 19.8573 11.7096 19.7367 11.7508 19.5941L14.0174 11.7707Z" fill="black"/>
<path d="M9.36398 13.6528C9.41235 13.597 9.44911 13.5324 9.47215 13.4626C9.4952 13.3928 9.50408 13.3193 9.49829 13.2461C9.49251 13.1729 9.47216 13.1016 9.43842 13.0362C9.40468 12.9708 9.3582 12.9125 9.30165 12.8648C9.24509 12.8171 9.17956 12.7809 9.1088 12.7582C9.03804 12.7354 8.96343 12.7267 8.88924 12.7324C8.81505 12.7381 8.74272 12.7582 8.67639 12.7914C8.61006 12.8247 8.55102 12.8705 8.50265 12.9263L6.80265 14.8822C6.71486 14.9834 6.66662 15.1122 6.66662 15.2454C6.66662 15.3786 6.71486 15.5074 6.80265 15.6087L8.50265 17.5645C8.55102 17.6203 8.61006 17.6661 8.67639 17.6994C8.74272 17.7327 8.81505 17.7527 8.88924 17.7584C8.96343 17.7641 9.03804 17.7554 9.1088 17.7327C9.17956 17.7099 9.24509 17.6737 9.30165 17.626C9.3582 17.5783 9.40468 17.5201 9.43842 17.4547C9.47216 17.3892 9.49251 17.3179 9.49829 17.2448C9.50408 17.1716 9.4952 17.098 9.47215 17.0282C9.44911 16.9584 9.41235 16.8938 9.36398 16.8381L7.97905 15.2454L9.36398 13.6528Z" fill="black"/>
<path d="M15.365 17.6249C15.3084 17.5772 15.2619 17.519 15.2282 17.4535C15.1944 17.3881 15.1741 17.3168 15.1683 17.2436C15.1625 17.1705 15.1714 17.0969 15.1945 17.0271C15.2175 16.9573 15.2543 16.8927 15.3026 16.8369L16.6864 15.2454L15.3038 13.6528C15.2127 13.5395 15.1696 13.3958 15.1837 13.252C15.1978 13.1081 15.2678 12.9751 15.3792 12.8811C15.4905 12.7871 15.6345 12.7392 15.7808 12.7477C15.9272 12.7561 16.0645 12.8201 16.164 12.9263L17.864 14.8822C17.9518 14.9834 18 15.1122 18 15.2454C18 15.3786 17.9518 15.5074 17.864 15.6087L16.164 17.5645C16.0661 17.677 15.927 17.7465 15.7771 17.7579C15.6273 17.7692 15.479 17.7213 15.365 17.6249Z" fill="black"/>
<path d="M4.49633 2.11764C4.61356 1.79064 4.83075 1.50755 5.11797 1.30738C5.40519 1.10721 5.74829 0.999818 6.09999 1H9.49998C9.85168 0.999818 10.1948 1.10721 10.482 1.30738C10.7692 1.50755 10.9864 1.79064 11.1036 2.11764H12.9C13.3508 2.11764 13.7832 2.29426 14.1021 2.60866C14.4209 2.92306 14.6 3.34947 14.6 3.7941V10.3625C14.2878 10.089 13.8842 9.93895 13.4666 9.94111V3.7941C13.4666 3.64589 13.4069 3.50375 13.3007 3.39895C13.1944 3.29415 13.0503 3.23528 12.9 3.23528H11.1036C10.9864 3.56227 10.7692 3.84536 10.482 4.04553C10.1948 4.2457 9.85168 4.3531 9.49998 4.35292H6.09999C5.74829 4.3531 5.40519 4.2457 5.11797 4.04553C4.83075 3.84536 4.61356 3.56227 4.49633 3.23528H2.7C2.54971 3.23528 2.40557 3.29415 2.2993 3.39895C2.19303 3.50375 2.13333 3.64589 2.13333 3.7941V17.2058C2.13333 17.354 2.19303 17.4961 2.2993 17.6009C2.40557 17.7057 2.54971 17.7646 2.7 17.7646H7.18459L7.64245 18.2921C7.97905 18.6788 8.45392 18.8766 8.93332 18.8777V18.8822H2.7C2.24913 18.8822 1.81673 18.7056 1.49792 18.3912C1.17911 18.0768 1 17.6504 1 17.2058V3.7941C1 3.34947 1.17911 2.92306 1.49792 2.60866C1.81673 2.29426 2.24913 2.11764 2.7 2.11764H4.49633ZM6.09999 2.11764C5.9497 2.11764 5.80557 2.17651 5.6993 2.28131C5.59303 2.38611 5.53332 2.52825 5.53332 2.67646C5.53332 2.82467 5.59303 2.9668 5.6993 3.0716C5.80557 3.1764 5.9497 3.23528 6.09999 3.23528H9.49998C9.65027 3.23528 9.7944 3.1764 9.90068 3.0716C10.0069 2.9668 10.0666 2.82467 10.0666 2.67646C10.0666 2.52825 10.0069 2.38611 9.90068 2.28131C9.7944 2.17651 9.65027 2.11764 9.49998 2.11764H6.09999Z" stroke="black" stroke-width="0.2"/>
<path d="M14.0174 11.7707C14.0378 11.7001 14.0439 11.6262 14.0354 11.5533C14.0268 11.4804 14.0038 11.4098 13.9676 11.3457C13.9314 11.2816 13.8827 11.2251 13.8244 11.1795C13.766 11.1339 13.6992 11.1001 13.6276 11.08C13.556 11.0599 13.4811 11.0539 13.4071 11.0623C13.3332 11.0707 13.2617 11.0935 13.1966 11.1292C13.1316 11.1649 13.0743 11.2129 13.0281 11.2704C12.9819 11.3279 12.9476 11.3939 12.9272 11.4644L10.6605 19.2879C10.6401 19.3585 10.634 19.4324 10.6426 19.5053C10.6511 19.5782 10.6742 19.6488 10.7104 19.7129C10.7835 19.8424 10.9058 19.938 11.0504 19.9786C11.195 20.0192 11.35 20.0015 11.4813 19.9294C11.6127 19.8573 11.7096 19.7367 11.7508 19.5941L14.0174 11.7707Z" stroke="black" stroke-width="0.2"/>
<path d="M9.36398 13.6528C9.41235 13.597 9.44911 13.5324 9.47215 13.4626C9.4952 13.3928 9.50408 13.3193 9.49829 13.2461C9.49251 13.1729 9.47216 13.1016 9.43842 13.0362C9.40468 12.9708 9.3582 12.9125 9.30165 12.8648C9.24509 12.8171 9.17956 12.7809 9.1088 12.7582C9.03804 12.7354 8.96343 12.7267 8.88924 12.7324C8.81505 12.7381 8.74272 12.7582 8.67639 12.7914C8.61006 12.8247 8.55102 12.8705 8.50265 12.9263L6.80265 14.8822C6.71486 14.9834 6.66662 15.1122 6.66662 15.2454C6.66662 15.3786 6.71486 15.5074 6.80265 15.6087L8.50265 17.5645C8.55102 17.6203 8.61006 17.6661 8.67639 17.6994C8.74272 17.7327 8.81505 17.7527 8.88924 17.7584C8.96343 17.7641 9.03804 17.7554 9.1088 17.7327C9.17956 17.7099 9.24509 17.6737 9.30165 17.626C9.3582 17.5783 9.40468 17.5201 9.43842 17.4547C9.47216 17.3892 9.49251 17.3179 9.49829 17.2448C9.50408 17.1716 9.4952 17.098 9.47215 17.0282C9.44911 16.9584 9.41235 16.8938 9.36398 16.8381L7.97905 15.2454L9.36398 13.6528Z" stroke="black" stroke-width="0.2"/>
<path d="M15.365 17.6249C15.3084 17.5772 15.2619 17.519 15.2282 17.4535C15.1944 17.3881 15.1741 17.3168 15.1683 17.2436C15.1625 17.1705 15.1714 17.0969 15.1945 17.0271C15.2175 16.9573 15.2543 16.8927 15.3026 16.8369L16.6864 15.2454L15.3038 13.6528C15.2127 13.5395 15.1696 13.3958 15.1837 13.252C15.1978 13.1081 15.2678 12.9751 15.3792 12.8811C15.4905 12.7871 15.6345 12.7392 15.7808 12.7477C15.9272 12.7561 16.0645 12.8201 16.164 12.9263L17.864 14.8822C17.9518 14.9834 18 15.1122 18 15.2454C18 15.3786 17.9518 15.5074 17.864 15.6087L16.164 17.5645C16.0661 17.677 15.927 17.7465 15.7771 17.7579C15.6273 17.7692 15.479 17.7213 15.365 17.6249Z" stroke="black" stroke-width="0.2"/>
</svg>
