<svg width="23" height="22" viewBox="0 0 23 22" fill="none" xmlns="http://www.w3.org/2000/svg">
<path d="M11.1111 9.33328C12.9367 9.33328 14.4167 7.87198 14.4167 6.06939C14.4167 4.26679 12.9367 2.8055 11.1111 2.8055C9.28552 2.8055 7.80557 4.26679 7.80557 6.06939C7.80557 7.87198 9.28552 9.33328 11.1111 9.33328Z" fill="black"/>
<path d="M6.09724 6.39578H6.43057V6.09716C6.4326 5.22883 6.67757 4.37839 7.13779 3.64204C7.59801 2.90569 8.2551 2.31282 9.03474 1.9305C8.80393 1.39894 8.43346 0.939828 7.96268 0.601913C7.4919 0.263998 6.93838 0.0599021 6.36092 0.0113033C5.78346 -0.0372955 5.20362 0.0714171 4.68298 0.325895C4.16234 0.580372 3.72035 0.971112 3.40394 1.45661C3.08754 1.94212 2.90854 2.50425 2.88596 3.08331C2.86338 3.66237 2.99806 4.23674 3.27569 4.74541C3.55332 5.25408 3.96354 5.67805 4.46278 5.9723C4.96202 6.26655 5.53164 6.42009 6.11113 6.41661L6.09724 6.39578Z" fill="black"/>
<path d="M15.8056 6.06939V6.368H16.1389C16.7107 6.36226 17.2703 6.20249 17.759 5.9055C18.2476 5.6085 18.6471 5.18528 18.9155 4.68037C19.1838 4.17545 19.3111 3.60753 19.2839 3.03637C19.2568 2.46522 19.0761 1.91195 18.761 1.43482C18.4459 0.95768 18.0079 0.574318 17.4933 0.325083C16.9787 0.0758488 16.4064 -0.0300408 15.8366 0.0185604C15.2669 0.0671617 14.7208 0.268456 14.2558 0.601256C13.7909 0.934056 13.4242 1.38605 13.1945 1.90967C13.9743 2.2905 14.6322 2.88187 15.0936 3.61694C15.555 4.35202 15.8016 5.2015 15.8056 6.06939Z" fill="black"/>
<path d="M14.0903 9.65966C15.471 9.93295 16.8061 10.4006 18.0556 11.0485C18.2316 11.1452 18.391 11.2695 18.5278 11.4166H22.2222V9.0416C22.2229 8.95051 22.1987 8.86096 22.1522 8.78264C22.1057 8.70431 22.0386 8.64017 21.9583 8.59716C20.1585 7.65571 18.1562 7.16708 16.125 7.17355H15.6667C15.426 8.15182 14.8725 9.02476 14.0903 9.65966Z" fill="black"/>
<path d="M3.14585 12.7638C3.14458 12.4141 3.23903 12.0707 3.41897 11.7707C3.59891 11.4708 3.85749 11.2259 4.16668 11.0624C5.41618 10.4144 6.75122 9.94683 8.13196 9.67354C7.35353 9.04404 6.80037 8.17897 6.55557 7.20826H6.09724C4.066 7.20179 2.0638 7.69043 0.263903 8.63187C0.183603 8.67489 0.11658 8.73902 0.0700726 8.81735C0.0235651 8.89568 -0.000659946 8.98522 1.36748e-05 9.07631V13.5138H3.14585V12.7638Z" fill="black"/>
<path d="M13.5139 16.7708H17.6528V17.743H13.5139V16.7708Z" fill="black"/>
<path d="M21.3958 12.9999H16.625V12.3055C16.625 12.1213 16.5518 11.9447 16.4216 11.8145C16.2914 11.6842 16.1147 11.6111 15.9306 11.6111C15.7464 11.6111 15.5698 11.6842 15.4395 11.8145C15.3093 11.9447 15.2361 12.1213 15.2361 12.3055V12.9999H13.8889V11.0347C12.9752 10.8428 12.0447 10.7428 11.1111 10.7361C8.9193 10.7269 6.75878 11.2563 4.81946 12.2777C4.73308 12.3225 4.66077 12.3904 4.61052 12.4737C4.56028 12.557 4.53405 12.6526 4.53474 12.7499V16.6458H9.47224V20.8749C9.47224 21.0591 9.5454 21.2358 9.67564 21.366C9.80587 21.4962 9.9825 21.5694 10.1667 21.5694H21.3958C21.58 21.5694 21.7567 21.4962 21.8869 21.366C22.0171 21.2358 22.0903 21.0591 22.0903 20.8749V13.6944C22.0903 13.5102 22.0171 13.3336 21.8869 13.2033C21.7567 13.0731 21.58 12.9999 21.3958 12.9999ZM20.7014 20.1944H10.8611V14.3888H15.2361V15.0208C15.2361 15.205 15.3093 15.3816 15.4395 15.5118C15.5698 15.6421 15.7464 15.7152 15.9306 15.7152C16.1147 15.7152 16.2914 15.6421 16.4216 15.5118C16.5518 15.3816 16.625 15.205 16.625 15.0208V14.3888H20.7014V20.1944Z" fill="black"/>
</svg>
